<svg xmlns="http://www.w3.org/2000/svg" height="8000" width="5500" viewBox="0 0 8600 8600"><rect style="fill: white; stroke: black; stroke-width: 10;" x="500.000000" y="500.000000" width="5500.000000" height="8000.000000"></rect><rect style="fill: white; stroke: black; stroke-width: 10;" x="500.000000" y="850.000000" width="5500.000000" height="45.000000"></rect><rect style="fill: white; stroke: black; stroke-width: 10;" x="500.000000" y="8105.000000" width="5500.000000" height="45.000000"></rect><rect style="fill: white; stroke: black; stroke-width: 10;" x="477.500000" y="500.000000" width="45.000000" height="8000.000000"></rect><rect style="fill: white; stroke: black; stroke-width: 10;" x="1043.611111" y="500.000000" width="45.000000" height="8000.000000"></rect><rect style="fill: white; stroke: black; stroke-width: 10;" x="1609.722222" y="500.000000" width="45.000000" height="8000.000000"></rect><rect style="fill: white; stroke: black; stroke-width: 10;" x="2175.833333" y="500.000000" width="45.000000" height="8000.000000"></rect><rect style="fill: white; stroke: black; stroke-width: 10;" x="2741.944444" y="500.000000" width="45.000000" height="8000.000000"></rect><rect style="fill: white; stroke: black; stroke-width: 10;" x="3308.055556" y="500.000000" width="45.000000" height="8000.000000"></rect><rect style="fill: white; stroke: black; stroke-width: 10;" x="3874.166667" y="500.000000" width="45.000000" height="8000.000000"></rect><rect style="fill: white; stroke: black; stroke-width: 10;" x="4440.277778" y="500.000000" width="45.000000" height="8000.000000"></rect><rect style="fill: white; stroke: black; stroke-width: 10;" x="5006.388889" y="500.000000" width="45.000000" height="8000.000000"></rect><rect style="fill: white; stroke: black; stroke-width: 10;" x="5572.500000" y="500.000000" width="45.000000" height="8000.000000"></rect><rect style="fill: white; stroke: black; stroke-width: 10;" x="1552.000000" y="850.000000" width="97.000000" height="97.000000"></rect><rect style="fill: white; stroke: black; stroke-width: 10;" x="5677.000000" y="850.000000" width="97.000000" height="97.000000"></rect><rect style="fill: white; stroke: black; stroke-width: 10;" x="1552.000000" y="8053.000000" width="97.000000" height="97.000000"></rect><rect style="fill: white; stroke: black; stroke-width: 10;" x="5677.000000" y="8053.000000" width="97.000000" height="97.000000"></rect><rect style="fill: white; stroke: black; stroke-width: 10;" x="3614.500000" y="850.000000" width="97.000000" height="97.000000"></rect><rect style="fill: white; stroke: black; stroke-width: 10;" x="3614.500000" y="8053.000000" width="97.000000" height="97.000000"></rect><marker id="beginArrow" markerWidth="12" markerHeight="12" refX="0" refY="6" orient="auto"><path d="M0,6 L12,0 L12,12 L0,6"></path></marker><marker id="endArrow" markerWidth="12" markerHeight="12" refX="12" refY="6" orient="auto"><path d="M0,0 L12,6 L0,12 L0,0"></path></marker><line style="stroke: black; stroke-width: 10; marker-start: url(#beginArrow); marker-end: url(#endArrow)" x1="500" y1="8900" x2="6000" y2="8900"></line><line style="stroke: black; stroke-width: 15;" x1="500" y1="8800" x2="500" y2="9000"></line><line style="stroke: black; stroke-width: 15;" x1="6000" y1="8800" x2="6000" y2="9000"></line></svg>