<svg xmlns="http://www.w3.org/2000/svg" height="8000" width="5500" viewBox="0 0 9000 9000">
    <rect style="fill: white; stroke: black; stroke-width: 10;" x="500.000000" y="500.000000" width="5500.000000"
          height="8000.000000"></rect>
    <rect style="fill: white; stroke: black; stroke-width: 10;" x="500.000000" y="850.000000" width="5500.000000"
          height="45.000000"></rect>
    <rect style="fill: white; stroke: black; stroke-width: 10;" x="500.000000" y="8105.000000" width="5500.000000"
          height="45.000000"></rect>
    <rect style="fill: white; stroke: black; stroke-width: 10;" x="477.500000" y="500.000000" width="45.000000"
          height="8000.000000"></rect>
    <rect style="fill: white; stroke: black; stroke-width: 10;" x="1043.611111" y="500.000000" width="45.000000"
          height="8000.000000"></rect>
    <rect style="fill: white; stroke: black; stroke-width: 10;" x="1609.722222" y="500.000000" width="45.000000"
          height="8000.000000"></rect>
    <rect style="fill: white; stroke: black; stroke-width: 10;" x="2175.833333" y="500.000000" width="45.000000"
          height="8000.000000"></rect>
    <rect style="fill: white; stroke: black; stroke-width: 10;" x="2741.944444" y="500.000000" width="45.000000"
          height="8000.000000"></rect>
    <rect style="fill: white; stroke: black; stroke-width: 10;" x="3308.055556" y="500.000000" width="45.000000"
          height="8000.000000"></rect>
    <rect style="fill: white; stroke: black; stroke-width: 10;" x="3874.166667" y="500.000000" width="45.000000"
          height="8000.000000"></rect>
    <rect style="fill: white; stroke: black; stroke-width: 10;" x="4440.277778" y="500.000000" width="45.000000"
          height="8000.000000"></rect>
    <rect style="fill: white; stroke: black; stroke-width: 10;" x="5006.388889" y="500.000000" width="45.000000"
          height="8000.000000"></rect>
    <rect style="fill: white; stroke: black; stroke-width: 10;" x="5572.500000" y="500.000000" width="45.000000"
          height="8000.000000"></rect>
    <rect style="fill: white; stroke: black; stroke-width: 10;" x="1552.000000" y="850.000000" width="97.000000"
          height="97.000000"></rect>
    <rect style="fill: white; stroke: black; stroke-width: 10;" x="5677.000000" y="850.000000" width="97.000000"
          height="97.000000"></rect>
    <rect style="fill: white; stroke: black; stroke-width: 10;" x="1552.000000" y="8053.000000" width="97.000000"
          height="97.000000"></rect>
    <rect style="fill: white; stroke: black; stroke-width: 10;" x="5677.000000" y="8053.000000" width="97.000000"
          height="97.000000"></rect>
    <rect style="fill: white; stroke: black; stroke-width: 10;" x="3614.500000" y="850.000000" width="97.000000"
          height="97.000000"></rect>
    <rect style="fill: white; stroke: black; stroke-width: 10;" x="3614.500000" y="8053.000000" width="97.000000"
          height="97.000000"></rect>
    <marker id="beginArrow" markerWidth="12.000000" markerHeight="12.000000" refX="0.000000" refY="6.000000"
            orient="auto">
        <path d="M0,6 L12,0 L12,12 L0,6"></path>
    </marker>
    <marker id="endArrow" markerWidth="12.000000" markerHeight="12.000000" refX="12.000000" refY="6.000000"
            orient="auto">
        <path d="M0,0 L12,6 L0,12 L0,0"></path>
    </marker>
    <line style="stroke: black; stroke-width: 10; marker-start: url(#beginArrow); marker-end: url(#endArrow)" x1="100.000000"
          y1="900.000000" x2="900.000000" y2="35.000000"></line>
</svg>