<svg xmlns="http://www.w3.org/2000/svg" height="500" width="500" viewBox="0 0 9000 8700" preserveAspectRatio="xMidYMid meet"><rect style="fill: white; stroke: black; stroke-width: 10;" x="1000.000000" y="500.000000" width="7800.000000" height="7500.000000"></rect><rect style="fill: white; stroke-dasharray: 100 100; stroke: black; stroke-width: 10;" x="753.000000" y="830.000000" width="7840.000000" height="6840.000000"></rect><rect style="fill: white; stroke: black; stroke-width: 20;" x="773.000000" y="850.000000" width="7800.000000" height="45.000000"></rect><rect style="fill: white; stroke: black; stroke-width: 20;" x="773.000000" y="7605.000000" width="7800.000000" height="45.000000"></rect><rect style="fill: white; stroke: black; stroke-width: 20;" x="773.000000" y="850.000000" width="45.000000" height="6800.000000"></rect><rect style="fill: white; stroke: black; stroke-width: 20;" x="8525.000000" y="850.000000" width="45.000000" height="6800.000000"></rect><line style="stroke-dasharray: 70 70; stroke-width: 20; stroke: black;" x1="1550" y1="850" x2="8215" y2="7650"></line><line style="stroke-dasharray: 70 70; stroke-width: 20; stroke: black;" x1="8215" y1="850" x2="1550" y2="7650"></line><rect style="fill: white; stroke: black; stroke-width: 10;" x="1000.000000" y="850.000000" width="7800.000000" height="45.000000"></rect><rect style="fill: white; stroke: black; stroke-width: 10;" x="1000.000000" y="7605.000000" width="7800.000000" height="45.000000"></rect><rect style="fill: white; stroke: black; stroke-width: 10;" x="977.500000" y="500.000000" width="45.000000" height="7500.000000"></rect><rect style="fill: white; stroke: black; stroke-width: 10;" x="1532.500000" y="500.000000" width="45.000000" height="7500.000000"></rect><rect style="fill: white; stroke: black; stroke-width: 10;" x="2087.500000" y="500.000000" width="45.000000" height="7500.000000"></rect><rect style="fill: white; stroke: black; stroke-width: 10;" x="2642.500000" y="500.000000" width="45.000000" height="7500.000000"></rect><rect style="fill: white; stroke: black; stroke-width: 10;" x="3197.500000" y="500.000000" width="45.000000" height="7500.000000"></rect><rect style="fill: white; stroke: black; stroke-width: 10;" x="3752.500000" y="500.000000" width="45.000000" height="7500.000000"></rect><rect style="fill: white; stroke: black; stroke-width: 10;" x="4307.500000" y="500.000000" width="45.000000" height="7500.000000"></rect><rect style="fill: white; stroke: black; stroke-width: 10;" x="4862.500000" y="500.000000" width="45.000000" height="7500.000000"></rect><rect style="fill: white; stroke: black; stroke-width: 10;" x="5417.500000" y="500.000000" width="45.000000" height="7500.000000"></rect><rect style="fill: white; stroke: black; stroke-width: 10;" x="5972.500000" y="500.000000" width="45.000000" height="7500.000000"></rect><rect style="fill: white; stroke: black; stroke-width: 10;" x="6527.500000" y="500.000000" width="45.000000" height="7500.000000"></rect><rect style="fill: white; stroke: black; stroke-width: 10;" x="7082.500000" y="500.000000" width="45.000000" height="7500.000000"></rect><rect style="fill: white; stroke: black; stroke-width: 10;" x="7637.500000" y="500.000000" width="45.000000" height="7500.000000"></rect><rect style="fill: white; stroke: black; stroke-width: 10;" x="8192.500000" y="500.000000" width="45.000000" height="7500.000000"></rect><rect style="fill: white; stroke: black; stroke-width: 10;" x="8747.500000" y="500.000000" width="45.000000" height="7500.000000"></rect><marker id="beginArrow" markerWidth="12" markerHeight="12" refX="0" refY="6" orient="auto"><path d="M0,6 L12,0 L12,12 L0,6"></path></marker><marker id="endArrow" markerWidth="12" markerHeight="12" refX="12" refY="6" orient="auto"><path d="M0,0 L12,6 L0,12 L0,0"></path></marker><line style="stroke: black; stroke-width: 10; marker-start: url(#beginArrow); marker-end: url(#endArrow)" x1="1000" y1="8400" x2="8800" y2="8400"></line><line style="stroke: black; stroke-width: 15;" x1="1000" y1="8100" x2="1000" y2="8500"></line><line style="stroke: black; stroke-width: 15;" x1="8800" y1="8100" x2="8800" y2="8500"></line><text style="stroke-width: 15" x="4900" y="8300" fill="black" font-size="200" transform="rotate(0 0,0)">780 cm</text><line style="stroke: black; stroke-width: 10; marker-start: url(#beginArrow); marker-end: url(#endArrow)" x1="200" y1="500" x2="200" y2="8000"></line><line style="stroke: black; stroke-width: 15" x1="100" y1="500" x2="900" y2="500"></line><line style="stroke: black; stroke-width: 15" x1="100" y1="8000" x2="900" y2="8000"></line><text style="stroke-width: 15" x="450" y="4250" fill="black" font-size="200" transform="rotate(-90 450, 4250)">750 cm</text><line style="stroke: black; stroke-width: 10; marker-start: url(#beginArrow); marker-end: url(#endArrow)" x1="600" y1="850" x2="600" y2="7650"></line><line style="stroke: black; stroke-width: 15" x1="500" y1="850" x2="900" y2="850"></line><line style="stroke: black; stroke-width: 15" x1="500" y1="7650" x2="900" y2="7650"></line><text style="stroke-width: 15" x="850" y="4250" fill="black" font-size="200" transform="rotate(-90 850, 4250)">680.0 cm</text><rect style="fill: white; stroke: black; stroke-width: 10;" x="773.000000" y="7560.000000" width="97.000000" height="97.000000"></rect><rect style="fill: white; stroke: black; stroke-width: 10;" x="773.000000" y="850.000000" width="97.000000" height="97.000000"></rect><rect style="fill: white; stroke: black; stroke-width: 10" x="8477.000000" y="7560.000000" width="97.000000" height="97.000000"></rect><rect style="fill: white; stroke: black; stroke-width: 10;" x="773.000000" y="4250.000000" width="97.000000" height="97.000000"></rect><rect style="fill: white; stroke: black; stroke-width: 10;" x="8476.000000" y="4250.000000" width="97.000000" height="97.000000"></rect><rect style="fill: white; stroke: black; stroke-width: 10;" x="2052.000000" y="850.000000" width="97.000000" height="97.000000"></rect><rect style="fill: white; stroke: black; stroke-width: 10;" x="8477.000000" y="850.000000" width="97.000000" height="97.000000"></rect><rect style="fill: white; stroke: black; stroke-width: 10;" x="2052.000000" y="7553.000000" width="97.000000" height="97.000000"></rect><rect style="fill: white; stroke: black; stroke-width: 10;" x="8477.000000" y="7553.000000" width="97.000000" height="97.000000"></rect><rect style="fill: white; stroke: black; stroke-width: 10;" x="5264.500000" y="850.000000" width="97.000000" height="97.000000"></rect><rect style="fill: white; stroke: black; stroke-width: 10;" x="5264.500000" y="7553.000000" width="97.000000" height="97.000000"></rect></svg>