<svg xmlns="http://www.w3.org/2000/svg" height="5000" width="4000" viewBox="0 0 9000 9000">
    <rect style="fill: white; stroke: black; stroke-width: 10;" x="500.000000" y="500.000000" width="4000.000000"
          height="5000.000000"></rect>
    <rect style="fill: white; stroke: black; stroke-width: 15;" x="500.000000" y="850.000000" width="4000.000000"
          height="45.000000"></rect>
    <rect style="fill: white; stroke: black; stroke-width: 15;" x="500.000000" y="5105.000000" width="4000.000000"
          height="45.000000"></rect>
    <rect style="fill: white; stroke: black; stroke-width: 15;" x="477.500000" y="500.000000" width="45.000000"
          height="5000.000000"></rect>
    <rect style="fill: white; stroke: black; stroke-width: 15;" x="1027.500000" y="500.000000" width="45.000000"
          height="5000.000000"></rect>
    <rect style="fill: white; stroke: black; stroke-width: 15;" x="1577.500000" y="500.000000" width="45.000000"
          height="5000.000000"></rect>
    <rect style="fill: white; stroke: black; stroke-width: 15;" x="2127.500000" y="500.000000" width="45.000000"
          height="5000.000000"></rect>
    <rect style="fill: white; stroke: black; stroke-width: 15;" x="2677.500000" y="500.000000" width="45.000000"
          height="5000.000000"></rect>
    <rect style="fill: white; stroke: black; stroke-width: 15;" x="3227.500000" y="500.000000" width="45.000000"
          height="5000.000000"></rect>
    <rect style="fill: white; stroke: black; stroke-width: 15;" x="3777.500000" y="500.000000" width="45.000000"
          height="5000.000000"></rect>
    <rect style="fill: white; stroke: black; stroke-width: 15;" x="4327.500000" y="500.000000" width="45.000000"
          height="5000.000000"></rect>
    <rect style="fill: white; stroke: black; stroke-width: 15;" x="1551.500000" y="850.000000" width="97.000000"
          height="97.000000"></rect>
    <rect style="fill: white; stroke: black; stroke-width: 15;" x="4176.500000" y="850.000000" width="97.000000"
          height="97.000000"></rect>
    <rect style="fill: white; stroke: black; stroke-width: 15;" x="1551.500000" y="5053.000000" width="97.000000"
          height="97.000000"></rect>
    <rect style="fill: white; stroke: black; stroke-width: 15;" x="4176.500000" y="5053.000000" width="97.000000"
          height="97.000000"></rect>
</svg>