<svg xmlns="http://www.w3.org/2000/svg" height="500" width="500" viewBox="0 0 7000 7400" preserveAspectRatio="xMidYMid meet"><rect style="fill: white; stroke: black; stroke-width: 10;" x="1000.000000" y="500.000000" width="5800.000000" height="6200.000000"></rect><rect style="fill: white; stroke-dasharray: 100 100; stroke: black; stroke-width: 10;" x="3853.000000" y="830.000000" width="2740.000000" height="3840.000000"></rect><rect style="fill: white; stroke: black; stroke-width: 20;" x="3873.000000" y="850.000000" width="2700.000000" height="45.000000"></rect><rect style="fill: white; stroke: black; stroke-width: 20;" x="3873.000000" y="4605.000000" width="2700.000000" height="45.000000"></rect><rect style="fill: white; stroke: black; stroke-width: 20;" x="3873.000000" y="850.000000" width="45.000000" height="3800.000000"></rect><rect style="fill: white; stroke: black; stroke-width: 20;" x="6525.000000" y="850.000000" width="45.000000" height="3800.000000"></rect><line style="stroke-dasharray: 70 70; stroke-width: 20; stroke: black;" x1="1550" y1="850" x2="6391" y2="6350"></line><line style="stroke-dasharray: 70 70; stroke-width: 20; stroke: black;" x1="6391" y1="850" x2="1550" y2="6350"></line><rect style="fill: white; stroke: black; stroke-width: 10;" x="1000.000000" y="850.000000" width="5800.000000" height="45.000000"></rect><rect style="fill: white; stroke: black; stroke-width: 10;" x="1000.000000" y="6305.000000" width="5800.000000" height="45.000000"></rect><rect style="fill: white; stroke: black; stroke-width: 10;" x="977.500000" y="500.000000" width="45.000000" height="6200.000000"></rect><rect style="fill: white; stroke: black; stroke-width: 10;" x="1576.944444" y="500.000000" width="45.000000" height="6200.000000"></rect><rect style="fill: white; stroke: black; stroke-width: 10;" x="2176.388889" y="500.000000" width="45.000000" height="6200.000000"></rect><rect style="fill: white; stroke: black; stroke-width: 10;" x="2775.833333" y="500.000000" width="45.000000" height="6200.000000"></rect><rect style="fill: white; stroke: black; stroke-width: 10;" x="3375.277778" y="500.000000" width="45.000000" height="6200.000000"></rect><rect style="fill: white; stroke: black; stroke-width: 10;" x="3974.722222" y="500.000000" width="45.000000" height="6200.000000"></rect><rect style="fill: white; stroke: black; stroke-width: 10;" x="4574.166667" y="500.000000" width="45.000000" height="6200.000000"></rect><rect style="fill: white; stroke: black; stroke-width: 10;" x="5173.611111" y="500.000000" width="45.000000" height="6200.000000"></rect><rect style="fill: white; stroke: black; stroke-width: 10;" x="5773.055556" y="500.000000" width="45.000000" height="6200.000000"></rect><rect style="fill: white; stroke: black; stroke-width: 10;" x="6372.500000" y="500.000000" width="45.000000" height="6200.000000"></rect><marker id="beginArrow" markerWidth="12" markerHeight="12" refX="0" refY="6" orient="auto"><path d="M0,6 L12,0 L12,12 L0,6"></path></marker><marker id="endArrow" markerWidth="12" markerHeight="12" refX="12" refY="6" orient="auto"><path d="M0,0 L12,6 L0,12 L0,0"></path></marker><line style="stroke: black; stroke-width: 10; marker-start: url(#beginArrow); marker-end: url(#endArrow)" x1="1000" y1="7100" x2="6800" y2="7100"></line><line style="stroke: black; stroke-width: 15;" x1="1000" y1="6800" x2="1000" y2="7200"></line><line style="stroke: black; stroke-width: 15;" x1="6800" y1="6800" x2="6800" y2="7200"></line><text style="stroke-width: 15" x="3900" y="7000" fill="black" font-size="200" transform="rotate(0 0,0)">580 cm</text><line style="stroke: black; stroke-width: 10; marker-start: url(#beginArrow); marker-end: url(#endArrow)" x1="200" y1="500" x2="200" y2="6700"></line><line style="stroke: black; stroke-width: 15" x1="100" y1="500" x2="900" y2="500"></line><line style="stroke: black; stroke-width: 15" x1="100" y1="6700" x2="900" y2="6700"></line><text style="stroke-width: 15" x="450" y="3600" fill="black" font-size="200" transform="rotate(-90 450, 3600)">620 cm</text><line style="stroke: black; stroke-width: 10; marker-start: url(#beginArrow); marker-end: url(#endArrow)" x1="600" y1="850" x2="600" y2="6350"></line><line style="stroke: black; stroke-width: 15" x1="500" y1="850" x2="900" y2="850"></line><line style="stroke: black; stroke-width: 15" x1="500" y1="6350" x2="900" y2="6350"></line><text style="stroke-width: 15" x="850" y="3600" fill="black" font-size="200" transform="rotate(-90 850, 3600)">550.0 cm</text><rect style="fill: white; stroke: black; stroke-width: 10;" x="3873.000000" y="4560.000000" width="97.000000" height="97.000000"></rect><rect style="fill: white; stroke: black; stroke-width: 10;" x="3873.000000" y="850.000000" width="97.000000" height="97.000000"></rect><rect style="fill: white; stroke: black; stroke-width: 10" x="6477.000000" y="4560.000000" width="97.000000" height="97.000000"></rect><rect style="fill: white; stroke: black; stroke-width: 10;" x="2052.000000" y="850.000000" width="97.000000" height="97.000000"></rect><rect style="fill: white; stroke: black; stroke-width: 10;" x="6477.000000" y="850.000000" width="97.000000" height="97.000000"></rect><rect style="fill: white; stroke: black; stroke-width: 10;" x="2052.000000" y="6253.000000" width="97.000000" height="97.000000"></rect><rect style="fill: white; stroke: black; stroke-width: 10;" x="6477.000000" y="6253.000000" width="97.000000" height="97.000000"></rect><rect style="fill: white; stroke: black; stroke-width: 10;" x="4264.500000" y="850.000000" width="97.000000" height="97.000000"></rect><rect style="fill: white; stroke: black; stroke-width: 10;" x="4264.500000" y="6253.000000" width="97.000000" height="97.000000"></rect></svg>