<svg xmlns="http://www.w3.org/2000/svg" height="500" width="500" viewBox="0 0 7200 6200" preserveAspectRatio="xMidYMid meet"><rect style="fill: white; stroke: black; stroke-width: 10;" x="1000.000000" y="500.000000" width="6000.000000" height="5000.000000"></rect><rect style="fill: white; stroke: black; stroke-width: 10;" x="1000.000000" y="850.000000" width="6000.000000" height="45.000000"></rect><rect style="fill: white; stroke: black; stroke-width: 10;" x="1000.000000" y="5105.000000" width="6000.000000" height="45.000000"></rect><rect style="fill: white; stroke: black; stroke-width: 10;" x="977.500000" y="500.000000" width="45.000000" height="5000.000000"></rect><rect style="fill: white; stroke: black; stroke-width: 10;" x="1532.500000" y="500.000000" width="45.000000" height="5000.000000"></rect><rect style="fill: white; stroke: black; stroke-width: 10;" x="2087.500000" y="500.000000" width="45.000000" height="5000.000000"></rect><rect style="fill: white; stroke: black; stroke-width: 10;" x="2642.500000" y="500.000000" width="45.000000" height="5000.000000"></rect><rect style="fill: white; stroke: black; stroke-width: 10;" x="3197.500000" y="500.000000" width="45.000000" height="5000.000000"></rect><rect style="fill: white; stroke: black; stroke-width: 10;" x="3752.500000" y="500.000000" width="45.000000" height="5000.000000"></rect><rect style="fill: white; stroke: black; stroke-width: 10;" x="4307.500000" y="500.000000" width="45.000000" height="5000.000000"></rect><rect style="fill: white; stroke: black; stroke-width: 10;" x="4862.500000" y="500.000000" width="45.000000" height="5000.000000"></rect><rect style="fill: white; stroke: black; stroke-width: 10;" x="5417.500000" y="500.000000" width="45.000000" height="5000.000000"></rect><rect style="fill: white; stroke: black; stroke-width: 10;" x="5972.500000" y="500.000000" width="45.000000" height="5000.000000"></rect><rect style="fill: white; stroke: black; stroke-width: 10;" x="6527.500000" y="500.000000" width="45.000000" height="5000.000000"></rect><rect style="fill: white; stroke: black; stroke-width: 10;" x="2052.000000" y="850.000000" width="97.000000" height="97.000000"></rect><rect style="fill: white; stroke: black; stroke-width: 10;" x="6677.000000" y="850.000000" width="97.000000" height="97.000000"></rect><rect style="fill: white; stroke: black; stroke-width: 10;" x="2052.000000" y="5053.000000" width="97.000000" height="97.000000"></rect><rect style="fill: white; stroke: black; stroke-width: 10;" x="6677.000000" y="5053.000000" width="97.000000" height="97.000000"></rect><rect style="fill: white; stroke: black; stroke-width: 10;" x="4364.500000" y="850.000000" width="97.000000" height="97.000000"></rect><rect style="fill: white; stroke: black; stroke-width: 10;" x="4364.500000" y="5053.000000" width="97.000000" height="97.000000"></rect><marker id="beginArrow" markerWidth="12" markerHeight="12" refX="0" refY="6" orient="auto"><path d="M0,6 L12,0 L12,12 L0,6"></path></marker><marker id="endArrow" markerWidth="12" markerHeight="12" refX="12" refY="6" orient="auto"><path d="M0,0 L12,6 L0,12 L0,0"></path></marker><line style="stroke: black; stroke-width: 10; marker-start: url(#beginArrow); marker-end: url(#endArrow)" x1="1000" y1="5900" x2="7000" y2="5900"></line><line style="stroke: black; stroke-width: 15;" x1="1000" y1="5600" x2="1000" y2="6000"></line><line style="stroke: black; stroke-width: 15;" x1="7000" y1="5600" x2="7000" y2="6000"></line><text style="stroke-width: 15" x="4000" y="5800" fill="black" font-size="200" transform="rotate(0 0,0)">600 cm</text><line style="stroke: black; stroke-width: 10; marker-start: url(#beginArrow); marker-end: url(#endArrow)" x1="200" y1="500" x2="200" y2="5500"></line><line style="stroke: black; stroke-width: 15" x1="100" y1="500" x2="900" y2="500"></line><line style="stroke: black; stroke-width: 15" x1="100" y1="5500" x2="900" y2="5500"></line><text style="stroke-width: 15" x="450" y="3000" fill="black" font-size="200" transform="rotate(-90 450, 3000)">500 cm</text><line style="stroke: black; stroke-width: 10; marker-start: url(#beginArrow); marker-end: url(#endArrow)" x1="600" y1="850" x2="600" y2="5150"></line><line style="stroke: black; stroke-width: 15" x1="500" y1="850" x2="900" y2="850"></line><line style="stroke: black; stroke-width: 15" x1="500" y1="5150" x2="900" y2="5150"></line><text style="stroke-width: 15" x="850" y="3000" fill="black" font-size="200" transform="rotate(-90 850, 3000)">430.0 cm</text></svg>